<svg width="39" height="39" viewBox="0 0 39 39" fill="none" xmlns="http://www.w3.org/2000/svg">
<mask id="mask-conn" mask-type="alpha" maskUnits="userSpaceOnUse" x="8" y="8" width="23" height="23">
<path fill-rule="evenodd" clip-rule="evenodd" d="M27.6853 8.32129L30.4067 27.6852L11.0428 30.4066L8.32138 11.0427L27.6853 8.32129Z" fill="white"/>
</mask>
<g mask="url(#mask-conn)">
<path fill-rule="evenodd" clip-rule="evenodd" d="M16.8423 22.7104C15.6153 21.7858 13.8548 22.0332 12.9302 23.2602C12.0056 24.4873 12.253 26.2477 13.48 27.1723C14.707 28.097 16.4675 27.8495 17.3921 26.6225C18.3167 25.3955 18.0693 23.635 16.8423 22.7104ZM21.854 29.9848C24.6363 26.2926 23.8968 21.0308 20.2046 18.2485C16.5124 15.4662 11.2506 16.2057 8.46829 19.8979C6.60222 22.3743 6.32964 25.5443 7.45215 28.209L10.0302 27.1086C9.29121 25.3275 9.4552 23.23 10.6992 21.5791C12.5569 19.1139 16.0582 18.6218 18.5235 20.4795C20.9887 22.3371 21.4807 25.8385 19.6231 28.3037C18.379 29.9546 16.408 30.6904 14.4921 30.4709L14.145 33.2524C17.0159 33.597 19.988 32.4612 21.854 29.9848ZM23.5669 13.7866C17.4095 9.14663 8.64634 10.3782 4.00638 16.5356C0.896256 20.6629 0.431721 25.9443 2.30165 30.379L4.87132 29.2898C3.38488 25.7387 3.74924 21.5186 6.23733 18.2168C9.95267 13.2864 16.9553 12.3022 21.8857 16.0175C26.8162 19.7329 27.8003 26.7355 24.085 31.666C21.5969 34.9678 17.6407 36.4812 13.8063 36.0228L13.4676 38.7931C18.2571 39.3767 23.2058 37.4744 26.3159 33.3471C30.9559 27.1897 29.7243 18.4266 23.5669 13.7866Z" fill="#1F8EFA"/>
</g>
</svg>
