<svg xmlns="http://www.w3.org/2000/svg" width="161" height="36" viewBox="0 0 161 36"><defs><clipPath id="ebssa"><path d="M3 3h14v14H3z"/></clipPath></defs><g><g><g><g><path fill="#fff" d="M158.302 26.5c-.039-1.559-.404-2.771-1.096-3.637-.692-.866-1.672-1.3-2.941-1.3-.673 0-1.274.135-1.802.405-.53.27-.99.63-1.385 1.082a5.03 5.03 0 0 0-.922 1.574 6.46 6.46 0 0 0-.39 1.876zm-10.585 1.184c0-1.309.187-2.45.563-3.421.375-.972.866-1.785 1.472-2.44a5.796 5.796 0 0 1 2.079-1.458 6.332 6.332 0 0 1 2.41-.476c1.829 0 3.286.597 4.374 1.79 1.087 1.193 1.631 3.031 1.631 5.514 0 .154-.005.308-.014.462-.01.154-.024.298-.044.433h-10.48c.058 1.828.51 3.233 1.358 4.215.846.981 2.194 1.472 4.041 1.472 1.02 0 1.829-.096 2.425-.288.597-.193 1.03-.356 1.3-.491l.346 1.616c-.27.154-.775.337-1.516.549-.74.212-1.612.318-2.612.318-1.31 0-2.426-.193-3.35-.578-.923-.385-1.683-.924-2.28-1.617-.597-.692-1.03-1.515-1.3-2.468-.269-.953-.403-1.997-.403-3.132zm-24.02-6.929a40.645 40.645 0 0 1 2.18-.52c.895-.192 2.055-.288 3.479-.288 1.886 0 3.252.548 4.1 1.645a7.948 7.948 0 0 1 1.617-.953 8.156 8.156 0 0 1 3.377-.692c1.135 0 2.054.168 2.757.505.702.337 1.246.808 1.63 1.415.386.606.646 1.332.78 2.18.135.846.202 1.77.202 2.77v8.344h-1.876v-7.737c0-.982-.044-1.833-.13-2.555-.087-.722-.26-1.318-.52-1.79a2.536 2.536 0 0 0-1.111-1.068c-.481-.24-1.107-.36-1.877-.36-.577 0-1.102.052-1.573.158-.472.106-.88.236-1.227.39-.347.154-.63.308-.852.462-.221.154-.38.269-.476.346.173.5.303 1.063.39 1.689.086.625.13 1.285.13 1.977v8.488h-1.877v-7.737c0-.982-.043-1.833-.13-2.555-.086-.722-.264-1.318-.534-1.79a2.604 2.604 0 0 0-1.14-1.068c-.491-.24-1.14-.36-1.949-.36-.905 0-1.67.047-2.295.143-.626.097-1.025.183-1.198.26v13.107h-1.877zm-6.062 6.958c0-1.867-.433-3.354-1.3-4.46-.865-1.107-2.04-1.66-3.521-1.66-1.482 0-2.656.553-3.522 1.66-.867 1.106-1.3 2.593-1.3 4.46s.433 3.349 1.3 4.446c.866 1.097 2.04 1.645 3.522 1.645 1.482 0 2.656-.548 3.522-1.645.866-1.097 1.299-2.58 1.299-4.446zm1.992 0c0 1.174-.169 2.242-.505 3.204-.337.963-.809 1.78-1.415 2.454a6.442 6.442 0 0 1-2.15 1.573c-.828.376-1.743.563-2.743.563-1.001 0-1.915-.187-2.743-.563a6.442 6.442 0 0 1-2.15-1.573c-.607-.674-1.079-1.491-1.415-2.454-.337-.962-.506-2.03-.506-3.204 0-1.174.169-2.242.506-3.205.336-.962.808-1.785 1.414-2.468a6.354 6.354 0 0 1 2.151-1.588c.828-.375 1.742-.563 2.743-.563 1 0 1.915.188 2.742.563a6.354 6.354 0 0 1 2.15 1.588c.607.683 1.079 1.506 1.416 2.468.336.963.505 2.03.505 3.205zM99.85 15.154h1.963v20.007h-1.963v-9.614H88.996v9.614h-1.963V15.155h1.963v8.69h10.855zm-26.358 1.04l4.302-.693v4.475h5.168v3.58h-5.168v5.34c0 .905.159 1.627.476 2.166.318.538.958.808 1.92.808.462 0 .938-.043 1.43-.13.49-.087.937-.207 1.342-.36l.606 3.348c-.52.212-1.097.395-1.732.548-.635.154-1.415.231-2.339.231-1.174 0-2.146-.158-2.916-.476-.77-.317-1.385-.76-1.847-1.328-.462-.568-.784-1.256-.967-2.064a12.185 12.185 0 0 1-.275-2.685zm-2.877 7.592a32.124 32.124 0 0 0-1.358-.303 8.4 8.4 0 0 0-1.677-.158c-.27 0-.592.024-.968.072-.375.048-.66.1-.852.159V35.16h-4.306V20.784c.77-.27 1.68-.524 2.73-.765 1.05-.24 2.221-.36 3.512-.36.231 0 .51.014.838.042a17.076 17.076 0 0 1 1.965.29c.328.066.607.148.838.245zm-19.67-4.214c1.27 0 2.33.144 3.176.433.847.288 1.525.702 2.035 1.24.51.54.871 1.194 1.083 1.964.212.77.318 1.626.318 2.57v8.949c-.616.135-1.473.293-2.57.476-1.097.183-2.425.275-3.984.275-.981 0-1.872-.087-2.67-.26-.799-.173-1.487-.457-2.064-.852a3.897 3.897 0 0 1-1.328-1.544c-.308-.636-.462-1.415-.462-2.339 0-.885.178-1.636.534-2.252a4.11 4.11 0 0 1 1.429-1.472 6.458 6.458 0 0 1 2.05-.794c.77-.164 1.568-.245 2.396-.245.558 0 1.053.024 1.486.072.434.048.785.11 1.054.188v-.405c0-.731-.221-1.318-.664-1.76-.442-.443-1.212-.665-2.31-.665-.73 0-1.452.053-2.165.16a9.288 9.288 0 0 0-1.847.447l-.549-3.465a16.54 16.54 0 0 1 2.165-.476c.443-.067.91-.125 1.4-.173.491-.048.987-.072 1.487-.072zm.347 12.587c.423 0 .827-.01 1.212-.03.385-.019.693-.047.924-.086v-3.262a7.938 7.938 0 0 0-.78-.116 8.527 8.527 0 0 0-2.093.014 2.98 2.98 0 0 0-.938.275 1.61 1.61 0 0 0-.635.549c-.154.23-.23.52-.23.866 0 .673.225 1.14.678 1.4.452.26 1.073.39 1.862.39zm-22.345-5.053c0-1.385-.178-2.367-.534-2.944-.356-.578-.967-.866-1.833-.866-.27 0-.549.014-.838.043a19.99 19.99 0 0 0-.837.101v11.721h-4.301V20.495a29.859 29.859 0 0 1 2.843-.591 23.16 23.16 0 0 1 1.69-.203 20.51 20.51 0 0 1 1.702-.072c1.098 0 1.988.14 2.67.419.684.279 1.247.61 1.69.996a7.39 7.39 0 0 1 2.122-1.04c.798-.25 1.535-.375 2.208-.375 1.213 0 2.209.169 2.988.505.78.337 1.4.814 1.862 1.43.462.615.78 1.347.953 2.194.173.846.26 1.79.26 2.829v8.574H37.29v-8.055c0-1.385-.178-2.367-.534-2.944-.356-.578-.967-.866-1.833-.866-.231 0-.553.057-.967.173-.414.115-.756.26-1.025.433.135.443.221.91.26 1.4.038.49.057 1.015.057 1.573v8.286h-4.301zm-19.4 4.628c.635 0 1.16-.053 1.573-.16.414-.105.746-.25.996-.432.25-.183.424-.4.52-.65.096-.25.144-.53.144-.838 0-.655-.308-1.199-.924-1.632-.616-.433-1.674-.9-3.175-1.4a23.94 23.94 0 0 1-1.963-.795 7.235 7.235 0 0 1-1.762-1.126 5.388 5.388 0 0 1-1.27-1.647c-.327-.645-.49-1.43-.49-2.354 0-.924.173-1.757.52-2.498a5.333 5.333 0 0 1 1.471-1.892c.268-.22.56-.417.875-.593a4.006 4.006 0 0 0 2.766 3.109 1.962 1.962 0 0 0-.306.156c-.472.298-.707.756-.707 1.372 0 .366.086.674.26.924.173.25.418.477.736.679.317.202.683.385 1.097.548.413.164.87.333 1.37.506 1.04.385 1.945.765 2.715 1.14.77.376 1.41.814 1.92 1.315.51.5.89 1.088 1.14 1.762.25.674.375 1.492.375 2.455 0 1.868-.654 3.317-1.963 4.347-1.309 1.03-3.282 1.545-5.918 1.545a16.39 16.39 0 0 1-2.396-.159 15.458 15.458 0 0 1-1.891-.39 10.84 10.84 0 0 1-1.415-.49 10.738 10.738 0 0 1-.996-.492l1.27-3.581c.597.327 1.333.62 2.209.88.875.26 1.948.39 3.219.39zm4.503-16.608c.982.289 1.79.606 2.425.953l-1.299 3.553a12.3 12.3 0 0 0-1.862-.766 6.912 6.912 0 0 0-1.518-.292 4 4 0 0 0 2.2-3.464l.054.016z"/></g><g><g transform="rotate(-315 10 10)"/><g clip-path="url(#ebssa)"><path fill="#1f8efa" d="M10 5c5.52 0 10 4.48 10 10 0 3.7-2.01 6.92-5 8.65l-1-1.73c2.39-1.39 4-3.96 4-6.92 0-4.42-3.58-8-8-8s-8 3.58-8 8c0 2.96 1.61 5.53 3.99 6.92l-1 1.73C2.01 21.92 0 18.7 0 15 0 9.48 4.48 5 10 5zm6 10c0 2.22-1.21 4.15-3 5.19l-1-1.74c1.19-.7 2-1.97 2-3.45 0-2.21-1.79-4-4-4s-4 1.79-4 4c0 1.48.81 2.75 2 3.45l-1 1.74C5.21 19.15 4 17.22 4 15c0-3.31 2.69-6 6-6s6 2.69 6 6zm-6-2c1.1 0 2 .9 2 2s-.9 2-2 2-2-.9-2-2 .9-2 2-2z"/></g></g></g></g></g></svg>