<svg width="24" height="24" viewBox="0 0 24 24" fill="none" xmlns="http://www.w3.org/2000/svg">
<path fill-rule="evenodd" clip-rule="evenodd" d="M20 18C20.5523 18 21 17.5523 21 17C21 16.4477 20.5523 16 20 16H4C3.44772 16 3 16.4477 3 17C3 17.5523 3.44772 18 4 18H20ZM20 13C20.5523 13 21 12.5523 21 12C21 11.4477 20.5523 11 20 11H4C3.44772 11 3 11.4477 3 12C3 12.5523 3.44772 13 4 13H20ZM3 7C3 7.55228 3.44772 8 4 8H20C20.5523 8 21 7.55228 21 7C21 6.44772 20.5523 6 20 6H4C3.44772 6 3 6.44772 3 7Z" fill="#3E4E6C"/>
<mask id="i-menu-mask" mask-type="alpha" maskUnits="userSpaceOnUse" x="3" y="6" width="18" height="12">
<path fill-rule="evenodd" clip-rule="evenodd" d="M20 18C20.5523 18 21 17.5523 21 17C21 16.4477 20.5523 16 20 16H4C3.44772 16 3 16.4477 3 17C3 17.5523 3.44772 18 4 18H20ZM20 13C20.5523 13 21 12.5523 21 12C21 11.4477 20.5523 11 20 11H4C3.44772 11 3 11.4477 3 12C3 12.5523 3.44772 13 4 13H20ZM3 7C3 7.55228 3.44772 8 4 8H20C20.5523 8 21 7.55228 21 7C21 6.44772 20.5523 6 20 6H4C3.44772 6 3 6.44772 3 7Z" fill="white"/>
</mask>
<g mask="url(#i-menu-mask)">
<rect width="24" height="24" fill="#657D95"/>
</g>
</svg>
