<svg width="25" height="24" viewBox="0 0 25 24" fill="none" xmlns="http://www.w3.org/2000/svg">
<path fill-rule="evenodd" clip-rule="evenodd" d="M19.4886 12.98C19.5279 12.66 19.5575 12.34 19.5575 12C19.5575 11.66 19.5279 11.34 19.4886 11.02L21.5658 9.37C21.7528 9.22 21.802 8.95 21.6839 8.73L19.715 5.27C19.5968 5.05 19.331 4.97 19.1145 5.05L16.6632 6.05C16.1512 5.65 15.6 5.32 14.9994 5.07L14.6253 2.42C14.5958 2.18 14.3891 2 14.143 2H10.2051C9.95902 2 9.75228 2.18 9.72275 2.42L9.34866 5.07C8.74814 5.32 8.19684 5.66 7.68493 6.05L5.23363 5.05C5.00721 4.96 4.75125 5.05 4.63311 5.27L2.6642 8.73C2.53622 8.95 2.59529 9.22 2.78234 9.37L4.85954 11.02C4.82016 11.34 4.79063 11.67 4.79063 12C4.79063 12.33 4.82016 12.66 4.85954 12.98L2.78234 14.63C2.59529 14.78 2.54607 15.05 2.6642 15.27L4.63311 18.73C4.75125 18.95 5.01705 19.03 5.23363 18.95L7.68493 17.95C8.19684 18.35 8.74814 18.68 9.34866 18.93L9.72275 21.58C9.75228 21.82 9.95902 22 10.2051 22H14.143C14.3891 22 14.5958 21.82 14.6253 21.58L14.9994 18.93C15.6 18.68 16.1512 18.34 16.6632 17.95L19.1145 18.95C19.3409 19.04 19.5968 18.95 19.715 18.73L21.6839 15.27C21.802 15.05 21.7528 14.78 21.5658 14.63L19.4886 12.98V12.98Z" stroke="currentColor" stroke-linecap="round"/>
<path d="M15.6195 12C15.6195 13.93 14.0739 15.5 12.1739 15.5C10.2739 15.5 8.72827 13.93 8.72827 12C8.72827 10.07 10.2739 8.5 12.1739 8.5" stroke="currentColor" stroke-linecap="round"/>
</svg>
