<svg width="48" height="86" viewBox="0 0 48 86" fill="none" xmlns="http://www.w3.org/2000/svg">
<path fill-rule="evenodd" clip-rule="evenodd" d="M26.6947 45.0075C28.8748 45.0297 30.7487 45.2936 32.3165 45.7991C33.9562 46.3278 35.4459 46.937 36.7854 47.6267L39.9033 39.1439C38.379 38.3163 36.439 37.5577 34.0833 36.868C33.9109 36.8176 33.7362 36.7689 33.5591 36.7222C33.193 40.6736 30.4099 43.9282 26.6947 45.0075ZM22.832 45.3191C18.9368 44.8488 15.761 42.0565 14.7432 38.3744C14.0504 38.7711 13.4067 39.2115 12.8123 39.6956C11.288 40.937 10.1101 42.4427 9.27867 44.2129C8.44723 45.983 8.03151 47.9715 8.03151 50.1784C8.03151 52.3853 8.42413 54.2589 9.20938 55.7991C9.99464 57.3394 11.0108 58.6497 12.258 59.7302C13.5052 60.8106 14.914 61.7072 16.4845 62.4198C18.055 63.1325 19.6255 63.7647 21.196 64.3164C24.7989 65.5118 27.3394 66.6268 28.8175 67.6612C30.2956 68.6957 31.0347 69.9946 31.0347 71.5578C31.0347 72.2935 30.9192 72.9601 30.6882 73.5578C30.4573 74.1555 30.0415 74.6728 29.4411 75.1096C28.8406 75.5463 28.0438 75.8912 27.0507 76.144C26.0576 76.3969 24.7989 76.5233 23.2746 76.5233C20.2259 76.5233 17.6508 76.213 15.5491 75.5923C13.4474 74.9716 11.6806 74.2705 10.2487 73.4889L7.20007 82.0406C7.84675 82.4084 8.64354 82.7992 9.59046 83.213C10.5374 83.6268 11.6691 84.0176 12.9855 84.3855C14.302 84.7533 15.8147 85.0636 17.5238 85.3165C19.2329 85.5694 21.1498 85.6958 23.2746 85.6958C29.6028 85.6958 34.3373 84.4659 37.4783 82.0061C40.6193 79.5463 42.1898 76.0866 42.1898 71.6268C42.1898 69.3279 41.8896 67.3739 41.2891 65.7647C40.6886 64.1555 39.7763 62.7532 38.5522 61.5578C37.3282 60.3624 35.7923 59.3164 33.9447 58.4198C32.097 57.5233 29.9261 56.6152 27.4318 55.6957C26.2308 55.2819 25.1338 54.8796 24.1406 54.4888C23.1475 54.098 22.2699 53.6612 21.5078 53.1784C20.7456 52.6957 20.1567 52.1554 19.7409 51.5577C19.3252 50.96 19.1174 50.2244 19.1174 49.3508C19.1174 47.8795 19.6832 46.7876 20.8149 46.0749C21.3341 45.748 22.0065 45.496 22.832 45.3191Z" fill="white"/>
<mask id="s-logo-mask" mask-type="alpha" maskUnits="userSpaceOnUse" x="0" y="0" width="48" height="48">
<rect x="23.9451" y="0.185059" width="33.6" height="33.4444" transform="rotate(45 23.9451 0.185059)" fill="white"/>
</mask>
<g mask="url(#s-logo-mask)">
<path fill-rule="evenodd" clip-rule="evenodd" d="M24 31.0554C21.36 31.0554 19.2 33.2054 19.2 35.8332C19.2 38.461 21.36 40.611 24 40.611C26.64 40.611 28.8 38.461 28.8 35.8332C28.8 33.2054 26.64 31.0554 24 31.0554ZM38.4 35.8332C38.4 27.926 31.944 21.4999 24 21.4999C16.056 21.4999 9.6 27.926 9.6 35.8332C9.6 41.1366 12.504 45.7471 16.8 48.2316L19.2 44.0749C16.344 42.4027 14.4 39.3688 14.4 35.8332C14.4 30.5538 18.696 26.2777 24 26.2777C29.304 26.2777 33.6 30.5538 33.6 35.8332C33.6 39.3688 31.656 42.4027 28.8 44.0749L31.2 48.2316C35.496 45.7471 38.4 41.1366 38.4 35.8332ZM24 11.9443C10.752 11.9443 0 22.6466 0 35.8332C0 44.6721 4.824 52.3643 11.976 56.4971L14.376 52.3643C8.664 49.0438 4.8 42.9043 4.8 35.8332C4.8 25.2743 13.392 16.7221 24 16.7221C34.608 16.7221 43.2 25.2743 43.2 35.8332C43.2 42.9043 39.336 49.0438 33.6 52.3643L36 56.4971C43.176 52.3643 48 44.6721 48 35.8332C48 22.6466 37.248 11.9443 24 11.9443Z" fill="#1F8EFA"/>
</g>
</svg>
